<?xml version="1.0" encoding="UTF-8"?>
<svg version="1.1" xmlns="http://www.w3.org/2000/svg" width="512" height="512">
<path d="M0 0 C1.19292132 -0.00538554 2.38584265 -0.01077108 3.61491311 -0.01631981 C6.885952 -0.02804976 10.15665832 -0.0265766 13.42769933 -0.019153 C16.97109976 -0.01438668 20.51444769 -0.02696151 24.05783081 -0.03717041 C30.98403361 -0.05429643 37.91014544 -0.05521137 44.8363639 -0.04995751 C50.47046902 -0.04590298 56.10454742 -0.04737453 61.73865128 -0.05270576 C62.54296455 -0.05345419 63.34727781 -0.05420261 64.17596421 -0.05497371 C65.81034231 -0.05650531 67.4447204 -0.05804366 69.07909848 -0.05958868 C84.37835547 -0.07329129 99.67756122 -0.0678918 114.97681703 -0.05640347 C128.94653825 -0.0464734 142.91612697 -0.05941182 156.88582776 -0.08333766 C171.26121326 -0.10777112 185.63653715 -0.11732611 200.01194298 -0.11068493 C208.07012354 -0.10720214 216.12820227 -0.1093624 224.18636703 -0.12693596 C231.04593991 -0.1417112 237.90533923 -0.14222431 244.76490889 -0.12486505 C248.25852588 -0.11639617 251.75183356 -0.11410339 255.24543381 -0.1295166 C282.12144744 -0.22337653 282.12144744 -0.22337653 294.45217896 4.38768005 C296.0982932 4.98551977 296.0982932 4.98551977 297.77766228 5.59543705 C314.57127943 11.93926514 328.69905682 23.85330438 336.34378052 40.30662537 C337.22930563 42.3781751 338.04244949 44.46347793 338.82717896 46.57518005 C339.06597778 47.19658875 339.30477661 47.81799744 339.55081177 48.45823669 C345.03809635 64.49722806 343.7393224 82.72460497 343.71096802 99.39964294 C343.71368275 102.09537216 343.71717505 104.79109045 343.72158813 107.48681641 C343.73042068 114.01040161 343.72858785 120.53394045 343.72276285 127.05752737 C343.71822236 132.36495898 343.71764371 137.67237771 343.71981049 142.97981071 C343.72011695 143.73888752 343.72042342 144.49796433 343.72073917 145.28004346 C343.7213787 146.82269769 343.72202713 148.36535191 343.72268435 149.90800612 C343.72836956 164.32886661 343.72185809 178.74970155 343.71108362 193.17055785 C343.70214795 205.51190628 343.70370381 217.85321707 343.71292114 230.19456482 C343.72365276 244.56990424 343.7278223 258.94522135 343.72169662 273.32056421 C343.7210596 274.85683119 343.72043086 276.39309817 343.71981049 277.92936516 C343.71950193 278.68499341 343.71919338 279.44062166 343.71887548 280.21914773 C343.71715733 285.51328195 343.7200445 290.80740188 343.72476959 296.10153389 C343.73041061 302.56312217 343.72879481 309.02466194 343.7182081 315.48624475 C343.71299462 318.77538429 343.71191828 322.06442771 343.71750641 325.35356903 C343.75910679 352.34025267 342.39333049 378.68555518 322.79275513 399.30809021 C309.73018084 412.30618541 291.90298339 419.55148401 273.56079042 419.66449106 C272.4377352 419.66139385 271.31467997 419.65829665 270.15759277 419.65510559 C268.94358783 419.6596367 267.72958289 419.66416782 266.47878993 419.66883624 C263.13034265 419.67926368 259.78211115 419.68081345 256.43366313 419.67844748 C252.81385324 419.67803767 249.19407483 419.6890942 245.57427979 419.69856262 C238.48979923 419.71513891 231.40535197 419.72067067 224.32085364 419.72178738 C218.55793882 419.72273959 212.79503493 419.7268585 207.03212357 419.73318863 C190.67069283 419.75079293 174.30928828 419.76002893 157.94784801 419.75852768 C157.06675281 419.75844777 156.1856576 419.75836786 155.27786255 419.75828552 C154.39568352 419.75820376 153.51350449 419.758122 152.60459276 419.75803776 C138.31776305 419.7572254 124.03103892 419.7763525 109.74423973 419.80456226 C95.05258365 419.83334099 80.36097896 419.84709976 65.669294 419.8453747 C57.42995978 419.84471246 49.19073619 419.85013184 40.95142746 419.8717308 C33.93439693 419.89000856 26.91752717 419.89423626 19.90048306 419.88071196 C16.32587931 419.87421494 12.75158339 419.87394526 9.17700958 419.89141846 C-18.39416265 420.01787027 -18.39416265 420.01787027 -30.54782104 415.38768005 C-31.29492655 415.1074317 -32.04203205 414.82718334 -32.81177711 414.53844261 C-40.94906 411.17006746 -48.11215747 406.34996732 -54.54782104 400.38768005 C-55.23231323 399.75732849 -55.91680542 399.12697693 -56.62203979 398.4775238 C-78.2611667 376.4132667 -76.70250069 345.91554725 -76.67721558 317.30955505 C-76.67857309 314.71397375 -76.68035499 312.11839264 -76.68252563 309.52281189 C-76.68694031 303.24354739 -76.68602617 296.96429493 -76.68311299 290.68502998 C-76.68084191 285.57545499 -76.68055378 280.46588334 -76.68163681 275.35630798 C-76.68179004 274.62527351 -76.68194328 273.89423904 -76.68210115 273.14105201 C-76.68242092 271.65533352 -76.68274514 270.16961503 -76.68307374 268.68389654 C-76.68591593 254.79713326 -76.68266137 240.9103766 -76.67727338 227.02361441 C-76.67280649 215.14366422 -76.67358278 203.26372381 -76.67819214 191.3837738 C-76.68356025 177.54203252 -76.68564136 163.70029702 -76.68257987 149.85855484 C-76.68226137 148.3787206 -76.681947 146.89888636 -76.68163681 145.41905212 C-76.68148253 144.69120569 -76.68132826 143.96335926 -76.68116931 143.21345687 C-76.68031085 138.11816883 -76.68175248 133.02288451 -76.68411636 127.92759705 C-76.68723628 121.05249361 -76.68497165 114.17740878 -76.67922211 107.30230713 C-76.67790847 104.7906192 -76.67826467 102.27892972 -76.68048477 99.76724243 C-76.72598309 43.02920194 -76.72598309 43.02920194 -55.79782104 21.13768005 C-40.57643615 6.64985588 -20.77514773 -0.11475451 0 0 Z M63.45217896 47.38768005 C54.12716674 62.1783206 54.12716674 62.1783206 49.45217896 78.38768005 C48.79217896 78.38768005 48.13217896 78.38768005 47.45217896 78.38768005 C34.31829082 112.43982976 23.03650389 146.88761893 23.13650513 183.76585388 C23.13966279 186.18778198 23.11610067 188.60847981 23.09085083 191.03025818 C23.03108761 205.59994108 24.97651405 219.75937673 29.07717896 233.76268005 C29.32661255 234.6235321 29.57604614 235.48438416 29.83303833 236.37132263 C34.23996472 250.89594964 40.51338068 267.57534187 51.45217896 278.38768005 C52.51621469 279.72434185 53.55743982 281.07942519 54.57717896 282.45018005 C58.16220835 287.1276433 62.06161595 291.44945286 66.06546021 295.77049255 C68.01210386 297.90510999 69.82715677 300.07932995 71.63967896 302.32518005 C78.54005485 310.25815377 87.79657629 317.46348392 97.17483521 322.1962738 C100.06214093 323.70678538 102.76433347 325.45302056 105.51467896 327.20018005 C112.28217143 331.38958016 119.26089087 334.95596581 126.43118286 338.40086365 C128.33499459 339.33046101 130.21240675 340.29889949 132.08889771 341.2822113 C153.87663514 352.43739579 178.67508239 359.0652901 202.45217896 364.38768005 C203.59928345 364.65016541 203.59928345 364.65016541 204.76956177 364.91795349 C212.0403831 366.70980882 212.0403831 366.70980882 219.45217896 367.38768005 C222.56220732 352.94399065 225.43981318 338.45987895 228.21511841 323.94865417 C228.58171253 322.03185223 228.94922674 320.11522602 229.31765747 318.19877625 C229.84079313 315.47455258 230.36001707 312.7496139 230.87796021 310.0243988 C231.11667595 308.78364342 231.11667595 308.78364342 231.36021423 307.51782227 C231.94297194 304.43027484 232.45217896 301.53746398 232.45217896 298.38768005 C227.37226777 296.89287365 222.28304094 295.5325218 217.08889771 294.49705505 C191.95205394 289.38956887 165.61794808 281.50990079 143.45217896 268.38768005 C142.78573364 267.99934998 142.11928833 267.6110199 141.43264771 267.21092224 C127.84942859 259.15342096 114.35208862 248.24899912 106.45217896 234.38768005 C105.54919067 232.83887146 105.54919067 232.83887146 104.62796021 231.2587738 C89.11762899 202.67684269 93.00990329 168.23474534 101.70217896 138.13768005 C107.86588407 117.74991309 116.33270379 98.60208527 125.45217896 79.38768005 C122.09410834 76.66869584 118.44907683 74.71418622 114.61624146 72.76268005 C113.9482251 72.41894348 113.28020874 72.07520691 112.59194946 71.72105408 C110.42231184 70.60607528 108.24988149 69.49667296 106.07717896 68.38768005 C104.58474005 67.62287905 103.09239022 66.85790421 101.60012817 66.09275818 C92.94232512 61.65857478 84.2712309 57.25039387 75.57717896 52.88768005 C74.68208618 52.43779724 73.78699341 51.98791443 72.86477661 51.5243988 C72.05057251 51.11834412 71.23636841 50.71228943 70.39749146 50.29393005 C69.70155884 49.94652771 69.00562622 49.59912537 68.28860474 49.24119568 C66.29442495 48.27227559 66.29442495 48.27227559 63.45217896 47.38768005 Z M194.28811646 205.8603363 C187.70042366 214.92892618 187.24279163 225.57482071 188.45217896 236.38768005 C190.12860005 244.70317277 195.36162279 251.64798311 201.45217896 257.38768005 C212.68596181 264.57617348 224.54034109 266.07058885 237.58108521 263.85643005 C247.4040583 261.09699944 255.73219016 254.39418679 261.10452271 245.7197113 C266.03344385 236.04759649 266.98777095 225.97693687 264.63967896 215.26268005 C261.53944023 206.37336995 253.01056299 198.49201488 244.81546021 194.25486755 C238.57603681 191.96536013 232.74377108 190.99748601 226.13967896 191.01268005 C225.03209229 191.01509705 225.03209229 191.01509705 223.90213013 191.01756287 C211.62921762 191.2905619 202.1555988 196.56103246 194.28811646 205.8603363 Z " fill="#3D83FE" transform="translate(122.54782104492188,41.61231994628906)"/>
<path d="M0 0 C1.8764329 2.81464935 2.66326756 4.73133618 3.5625 7.9375 C3.81128906 8.79214844 4.06007813 9.64679688 4.31640625 10.52734375 C6.08335197 19.50342802 6.14745036 28.69376407 6.13371277 37.81341553 C6.13597833 38.93944002 6.13824388 40.06546452 6.14057809 41.22561097 C6.14686313 44.96519666 6.14609229 48.70474559 6.14526367 52.44433594 C6.14825858 55.13932427 6.15163404 57.83430981 6.15544128 60.52929688 C6.16371103 67.0702647 6.16649444 73.61122352 6.16705366 80.15219614 C6.16753053 85.47404687 6.16959374 90.79589465 6.17275429 96.11774445 C6.18155043 111.2389554 6.18617523 126.36015928 6.18542381 141.4813728 C6.18538386 142.29479517 6.1853439 143.10821753 6.18530273 143.94628906 C6.18526185 144.76071575 6.18522097 145.57514245 6.18517885 146.41424873 C6.18477257 159.60733609 6.19434048 172.80039488 6.2084411 185.99347398 C6.22283823 199.57216217 6.22970947 213.15083647 6.22884732 226.72953248 C6.22851653 234.34004312 6.23121186 241.9505238 6.24202538 249.56102753 C6.25117437 256.0410312 6.25326974 262.52099134 6.24651595 269.00099871 C6.24327293 272.30023326 6.24422106 275.59936804 6.2518692 278.89859772 C6.28044025 292.08398685 6.19021103 304.96921894 4 318 C3.67 318 3.34 318 3 318 C3.00113916 317.37649338 3.00227832 316.75298675 3.003452 316.11058599 C3.07064111 279.12564217 3.12208739 242.1407074 3.15319599 205.15571501 C3.15694794 200.7111504 3.16083092 196.26658591 3.16479492 191.82202148 C3.16558185 190.93721893 3.16636878 190.05241638 3.16717956 189.14080163 C3.18022009 174.82944188 3.20386646 160.51811842 3.23145839 146.20678017 C3.25955027 131.51316842 3.27618425 116.81957562 3.28226548 102.12593812 C3.28637409 93.06510339 3.29933314 84.00437126 3.3237494 74.94356813 C3.33965332 68.72339742 3.34438986 62.50327946 3.34050413 56.28308991 C3.3385898 52.69871248 3.34144606 49.11451386 3.35761642 45.53016853 C3.37506885 41.63290666 3.3689257 37.73587379 3.36076355 33.83857727 C3.36950207 32.72083257 3.3782406 31.60308786 3.38724393 30.4514721 C3.34871207 23.61065611 2.40772474 17.48031391 0.66187745 10.86236447 C-0.20460123 7.11517866 -0.22499497 3.82491449 0 0 Z " fill="#A4BFEE" transform="translate(460,88)"/>
<path d="M0 0 C0.33 0 0.66 0 1 0 C1.0270043 1.45823212 1.04639787 2.91660675 1.0625 4.375 C1.07410156 5.18710938 1.08570313 5.99921875 1.09765625 6.8359375 C1 9 1 9 0 11 C-0.09863988 12.625818 -0.1338625 14.25565427 -0.1386652 15.88445473 C-0.14413964 16.92300531 -0.14961409 17.96155589 -0.15525442 19.03157771 C-0.15623253 20.18136367 -0.15721064 21.33114963 -0.15821838 22.51577759 C-0.16315636 23.73030149 -0.16809434 24.94482539 -0.17318195 26.19615304 C-0.18592589 29.57791076 -0.19419122 32.95962699 -0.20060861 36.34139919 C-0.20859763 39.98421859 -0.22230054 43.6270169 -0.23532104 47.26982117 C-0.2571051 53.58475715 -0.27524251 59.89969524 -0.29092598 66.2146492 C-0.31360707 75.34509126 -0.34175232 84.47550999 -0.37124526 93.60593228 C-0.4189428 108.41826748 -0.46220111 123.23061221 -0.50268555 138.04296875 C-0.54202948 152.43457786 -0.58345305 166.82617849 -0.62768555 181.21777344 C-0.63040982 182.10438568 -0.63313409 182.99099792 -0.63594092 183.90447719 C-0.64962021 188.35220519 -0.66334052 192.79993307 -0.67708123 197.24766088 C-0.79107996 234.16508967 -0.89788179 271.08253653 -1 308 C-1.33 308 -1.66 308 -2 308 C-3.09784353 293.63922161 -3.14211984 279.31849576 -3.12939453 264.921875 C-3.13075205 262.3262937 -3.13253394 259.73071259 -3.13470459 257.13513184 C-3.13911926 250.85586733 -3.13820513 244.57661488 -3.13529195 238.29734993 C-3.13302087 233.18777494 -3.13273273 228.07820329 -3.13381577 222.96862793 C-3.133969 222.23759346 -3.13412223 221.50655899 -3.13428011 220.75337195 C-3.13459988 219.26765346 -3.13492409 217.78193498 -3.1352527 216.29621649 C-3.13809488 202.4094532 -3.13484033 188.52269655 -3.12945233 174.63593435 C-3.12498545 162.75598417 -3.12576173 150.87604376 -3.13037109 138.99609375 C-3.13573921 125.15435246 -3.13782031 111.31261697 -3.13475883 97.47087479 C-3.13444033 95.99104055 -3.13412596 94.51120631 -3.13381577 93.03137207 C-3.13366149 92.30352564 -3.13350721 91.5756792 -3.13334826 90.82577682 C-3.13248981 85.73048878 -3.13393143 80.63520445 -3.13629532 75.53991699 C-3.13941524 68.66481355 -3.13715061 61.78972873 -3.13140106 54.91462708 C-3.13008742 52.40293915 -3.13044362 49.89124966 -3.13266373 47.37956238 C-3.16132509 11.63781155 -3.16132509 11.63781155 0 0 Z " fill="#5283DF" transform="translate(49,94)"/>
<path d="M0 0 C3.23346732 0.30193668 4.60366511 0.52672425 6.73046875 3.06640625 C7.21128906 3.89011719 7.69210937 4.71382812 8.1875 5.5625 C9.07880306 7.06995452 10.00651258 8.55784085 11 10 C11.66 10 12.32 10 13 10 C13 11.32 13 12.64 13 14 C13.66 14 14.32 14 15 14 C16.47782495 19.05482468 16.18425076 24.15022505 16.1875 29.375 C16.19974609 30.40367187 16.21199219 31.43234375 16.22460938 32.4921875 C16.23478257 37.755118 16.05851212 42.07454191 14 47 C13.76539063 47.81984375 13.53078125 48.6396875 13.2890625 49.484375 C13.06992187 50.23203125 12.85078125 50.9796875 12.625 51.75 C12.41101563 52.50796875 12.19703125 53.2659375 11.9765625 54.046875 C10.73102143 56.53795714 9.48387231 56.86835161 7 58 C6.34 58.99 5.68 59.98 5 61 C2.9765625 62.203125 2.9765625 62.203125 0.625 63.25 C-0.14585937 63.60578125 -0.91671875 63.9615625 -1.7109375 64.328125 C-4.26295486 65.07718129 -5.52778264 64.88051577 -8 64 C-7.5153125 63.731875 -7.030625 63.46375 -6.53125 63.1875 C3.30615104 57.43640401 10.04570534 50.06987279 13.61328125 39.1171875 C15.13197848 30.8027037 15.17095365 20.53800842 11 13 C8.33658057 9.56906442 5.35379189 6.45423111 2.30078125 3.37109375 C0 1 0 1 0 0 Z " fill="#5389E7" transform="translate(373,239)"/>
<path d="M0 0 C4.8788549 0.55119887 8.76010703 2.11892394 13.0625 4.375 C13.66126953 4.67921875 14.26003906 4.9834375 14.87695312 5.296875 C17.52685248 6.65520238 20.10880859 8.06702095 22.64453125 9.62890625 C24.95954221 10.97644994 27.06744965 11.79347713 29.625 12.5625 C32.59643702 13.46001596 34.35288191 14.23525461 37 16 C37 16.99 37 17.98 37 19 C32.71973224 17.67023524 28.82596966 16.02543452 24.83203125 13.99609375 C23.69185547 13.42052734 22.55167969 12.84496094 21.37695312 12.25195312 C20.20068359 11.65318359 19.02441406 11.05441406 17.8125 10.4375 C15.46614206 9.24609658 13.11814541 8.05805643 10.76953125 6.87109375 C9.73417236 6.34443115 8.69881348 5.81776855 7.63208008 5.27514648 C4.98811962 3.92435656 4.98811962 3.92435656 2 3 C-1.63 10.59 -5.26 18.18 -9 26 C-9.66 26 -10.32 26 -11 26 C-8.26498118 17.18716158 -5.14156756 7.71235134 0 0 Z " fill="#8DB4F2" transform="translate(184,87)"/>
<path d="M0 0 C16.26243177 4.47806092 29.67248665 15.85119526 38.34765625 30.234375 C40.19331294 33.75369169 41.5021802 37.01744158 42 41 C41.01 41.495 41.01 41.495 40 42 C39.01585567 40.08588443 38.03786651 38.1686033 37.0625 36.25 C36.51722656 35.18265625 35.97195313 34.1153125 35.41015625 33.015625 C34 30 34 30 33.49609375 27.671875 C33.33238281 27.12015625 33.16867187 26.5684375 33 26 C32.01 25.67 31.02 25.34 30 25 C30 24.34 30 23.68 30 23 C29.01 23 28.02 23 27 23 C27 21.68 27 20.36 27 19 C26.34 19 25.68 19 25 19 C25 18.34 25 17.68 25 17 C24.236875 16.95875 23.47375 16.9175 22.6875 16.875 C21.800625 16.58625 20.91375 16.2975 20 16 C19.319375 14.576875 19.319375 14.576875 18.625 13.125 C16.520161 9.07723268 14.06963778 8.42398416 10 7 C8.3893613 6.32780218 6.78520978 5.63987483 5.1875 4.9375 C4.06408203 4.45603516 4.06408203 4.45603516 2.91796875 3.96484375 C1 3 1 3 -1 1 C-0.67 0.67 -0.34 0.34 0 0 Z " fill="#81ADEE" transform="translate(418,47)"/>
<path d="M0 0 C0.99 0.33 1.98 0.66 3 1 C3.71905947 2.73227963 4.43469354 4.46631353 5.11328125 6.21484375 C6.78183748 9.57400762 9.73231859 11.3661593 13 13 C13 13.66 13 14.32 13 15 C13.66 15 14.32 15 15 15 C16.625 16.375 16.625 16.375 18 18 C18 18.66 18 19.32 18 20 C18.53625 20.2475 19.0725 20.495 19.625 20.75 C22 22 22 22 24.9375 24 C27.62508917 25.75516028 30.02146128 26.87298535 33 28 C33.99 28.66 34.98 29.32 36 30 C36 30.66 36 31.32 36 32 C21.58687311 28.33564571 8.95194396 17.63614128 1.375 4.9375 C0 2 0 2 0 0 Z " fill="#9AB9F2" transform="translate(56,424)"/>
<path d="M0 0 C1.32 0 2.64 0 4 0 C4 0.66 4 1.32 4 2 C4.680625 2.20625 5.36125 2.4125 6.0625 2.625 C10.50978824 4.70670939 14.2158462 7.92585977 17.41796875 11.6484375 C19.49991223 13.42708551 20.98381337 13.49158068 23.6875 13.6875 C24.49574219 13.75324219 25.30398438 13.81898438 26.13671875 13.88671875 C26.75160156 13.92410156 27.36648438 13.96148437 28 14 C28.33 15.65 28.66 17.3 29 19 C29.66 19 30.32 19 31 19 C31 19.99 31 20.98 31 22 C25.92838228 20.57652448 22.05557077 18.36169321 17.75 15.4375 C17.09829834 14.99929932 16.44659668 14.56109863 15.77514648 14.10961914 C10.09345158 10.21242011 4.80317948 5.96140187 0 1 C0 0.67 0 0.34 0 0 Z " fill="#7DA6EF" transform="translate(241,291)"/>
<path d="M0 0 C8 9.42857143 8 9.42857143 8 14 C8.99 14.33 9.98 14.66 11 15 C12.9375 17.3984375 12.9375 17.3984375 15 20.375 C18.18400249 24.95751949 18.18400249 24.95751949 22 29 C21.67 29.66 21.34 30.32 21 31 C20.34 30.34 19.68 29.68 19 29 C18.236875 28.814375 17.47375 28.62875 16.6875 28.4375 C13.01498748 26.47313284 12.0624785 23.87517112 10.30859375 20.19140625 C8.8523327 17.75271238 7.27350539 16.6486519 5 15 C5 14.34 5 13.68 5 13 C4.34 13 3.68 13 3 13 C3 11.68 3 10.36 3 9 C2.34 9 1.68 9 1 9 C0.67 6.03 0.34 3.06 0 0 Z " fill="#8CB1EE" transform="translate(162,302)"/>
<path d="M0 0 C0.66 0 1.32 0 2 0 C2.02578125 1.03898437 2.0515625 2.07796875 2.078125 3.1484375 C2.56289309 16.73989843 5.16442625 25.11668075 15 35 C14.67 35.66 14.34 36.32 14 37 C6.62347857 31.47218493 1.95354605 25.12114898 0 16 C-0.06926968 13.24029592 -0.0941736 10.50803958 -0.0625 7.75 C-0.05798828 7.00492187 -0.05347656 6.25984375 -0.04882812 5.4921875 C-0.03709246 3.6614236 -0.0191585 1.83070127 0 0 Z " fill="#8FB4EF" transform="translate(309,262)"/>
<path d="M0 0 C3.23346732 0.30193668 4.60366511 0.52672425 6.73046875 3.06640625 C7.45169922 4.30197266 7.45169922 4.30197266 8.1875 5.5625 C9.07880306 7.06995452 10.00651258 8.55784085 11 10 C11.66 10 12.32 10 13 10 C13 11.32 13 12.64 13 14 C13.66 14 14.32 14 15 14 C15.95376567 17.20782086 16.11621181 20.08187396 16.09765625 23.421875 C16.09443359 24.44667969 16.09121094 25.47148437 16.08789062 26.52734375 C16.07951172 27.59082031 16.07113281 28.65429688 16.0625 29.75 C16.05798828 30.82894531 16.05347656 31.90789062 16.04882812 33.01953125 C16.03705727 35.67974383 16.02061399 38.33984365 16 41 C15.34 41 14.68 41 14 41 C14.03480469 39.81664062 14.06960938 38.63328125 14.10546875 37.4140625 C14.37780233 24.7418309 14.24197796 16.02428479 5.3125 6.4375 C4.31281358 5.41123705 3.30919434 4.3887831 2.30078125 3.37109375 C0 1 0 1 0 0 Z " fill="#89ADEF" transform="translate(373,239)"/>
<path d="M0 0 C0.33 0 0.66 0 1 0 C1.0270043 1.45823212 1.04639787 2.91660675 1.0625 4.375 C1.07410156 5.18710938 1.08570313 5.99921875 1.09765625 6.8359375 C1 9 1 9 0 11 C-0.15691907 13.76931368 -0.25843134 16.51734107 -0.31640625 19.2890625 C-0.33718735 20.10748627 -0.35796844 20.92591003 -0.37937927 21.76913452 C-0.44484812 24.38766966 -0.50374726 27.00630639 -0.5625 29.625 C-0.60568776 31.39844807 -0.64930214 33.17188581 -0.69335938 34.9453125 C-0.80052676 39.29677046 -0.90180169 43.64833077 -1 48 C-1.66 47.67 -2.32 47.34 -3 47 C-3.31598848 12.15862441 -3.31598848 12.15862441 0 0 Z " fill="#95B4EB" transform="translate(49,94)"/>
<path d="M0 0 C0.66 0.99 1.32 1.98 2 3 C1.34 3 0.68 3 0 3 C-0.06058594 3.62648437 -0.12117187 4.25296875 -0.18359375 4.8984375 C-0.26738281 5.71570313 -0.35117188 6.53296875 -0.4375 7.375 C-0.51871094 8.18710938 -0.59992188 8.99921875 -0.68359375 9.8359375 C-1 12 -1 12 -2 14 C-1.979375 14.825 -1.95875 15.65 -1.9375 16.5 C-2 19 -2 19 -4 21 C-4.309375 21.99 -4.61875 22.98 -4.9375 24 C-6 27 -6 27 -9 29 C-8.39582769 22.86597278 -6.59290549 17.46610452 -4.5 11.6875 C-4.01853516 10.32915039 -4.01853516 10.32915039 -3.52734375 8.94335938 C-1.18244724 2.36489448 -1.18244724 2.36489448 0 0 Z " fill="#7CA8EF" transform="translate(233,152)"/>
<path d="M0 0 C0.66 0.33 1.32 0.66 2 1 C-3.59781279 5.45190758 -9.2567104 8.79534903 -15.875 11.4375 C-16.51703369 11.69611816 -17.15906738 11.95473633 -17.82055664 12.22119141 C-21.13950035 13.492981 -23.38667767 14 -27 14 C-27 13.34 -27 12.68 -27 12 C-26.30132812 11.80664062 -25.60265625 11.61328125 -24.8828125 11.4140625 C-23.97273438 11.15367187 -23.06265625 10.89328125 -22.125 10.625 C-21.22007812 10.36976563 -20.31515625 10.11453125 -19.3828125 9.8515625 C-16.85430274 9.1395685 -16.85430274 9.1395685 -15 7 C-13.34477118 6.27169932 -11.68684569 5.54847603 -10.01171875 4.8671875 C-7.15286941 3.63482914 -4.43470886 2.1551663 -1.69921875 0.671875 C-1.13847656 0.45015625 -0.57773437 0.2284375 0 0 Z " fill="#84ADEE" transform="translate(437,445)"/>
<path d="M0 0 C0.33 0 0.66 0 1 0 C1.05534912 0.69150146 1.11069824 1.38300293 1.16772461 2.09545898 C1.41963531 5.20987214 1.67847351 8.32367095 1.9375 11.4375 C2.02451172 12.52611328 2.11152344 13.61472656 2.20117188 14.73632812 C2.28818359 15.77080078 2.37519531 16.80527344 2.46484375 17.87109375 C2.58267212 19.30859985 2.58267212 19.30859985 2.70288086 20.77514648 C2.76667071 22.96909889 2.76667071 22.96909889 4 24 C4.15582303 25.34015221 4.25044142 26.68758903 4.31640625 28.03515625 C4.35830078 28.84404297 4.40019531 29.65292969 4.44335938 30.48632812 C4.48267578 31.33646484 4.52199219 32.18660156 4.5625 33.0625 C4.60568359 33.91650391 4.64886719 34.77050781 4.69335938 35.65039062 C4.79976702 37.76672037 4.90041731 39.88333813 5 42 C3.03844867 38.29288042 2.12008019 34.66782043 1.375 30.5625 C1.24311279 29.83619385 1.11122559 29.1098877 0.9753418 28.36157227 C-0.55433431 18.95510244 -0.25063784 9.49638946 0 0 Z " fill="#8BB5F1" transform="translate(216,217)"/>
<path d="M0 0 C0.66 0.33 1.32 0.66 2 1 C0.57351303 7.55250788 -0.98403342 14.06064695 -2.625 20.5625 C-2.85445312 21.47580078 -3.08390625 22.38910156 -3.3203125 23.33007812 C-3.87911892 25.553662 -4.43903122 27.77696086 -5 30 C-7 28 -7 28 -7.01171875 25.87109375 C-6.90472656 25.06800781 -6.79773438 24.26492187 -6.6875 23.4375 C-6.58824219 22.63183594 -6.48898438 21.82617188 -6.38671875 20.99609375 C-6 19 -6 19 -5 18 C-4.67533241 16.48586842 -4.39052676 14.96311431 -4.125 13.4375 C-3.22288588 8.68773248 -1.8219347 4.47202154 0 0 Z " fill="#7AA6EE" transform="translate(157,149)"/>
<path d="M0 0 C-0.33 12.54 -0.66 25.08 -1 38 C-1.33 38 -1.66 38 -2 38 C-2.82637424 25.64865646 -3.12350504 13.3779494 -3 1 C-1 0 -1 0 0 0 Z " fill="#93BCF5" transform="translate(147,203)"/>
<path d="M0 0 C1.32 0.33 2.64 0.66 4 1 C2.93498127 4.55006245 1.64739519 7.78571904 -0.0625 11.0625 C-1.29739382 13.44148663 -2.03106107 15.15530536 -2.5625 17.8125 C-3.0877893 20.43894651 -3.88788882 21.3947955 -6 23 C-6.66 23 -7.32 23 -8 23 C-6.30008327 17.44291181 -3.87675507 12.40271525 -1.30273438 7.21484375 C-0.47772326 5.50307433 0.26795868 3.7535431 1 2 C0.67 1.34 0.34 0.68 0 0 Z " fill="#90B5F3" transform="translate(246,119)"/>
<path d="M0 0 C5.75 0.75 5.75 0.75 8 3 C9.45979934 3.55400354 10.94284206 4.04841205 12.4375 4.5 C15.46202775 5.41682554 17.31457196 6.20971464 20 8 C20 8.99 20 9.98 20 11 C15.26210835 9.55676531 11.01141849 7.62773267 6.625 5.375 C5.98433594 5.05015625 5.34367188 4.7253125 4.68359375 4.390625 C3.12052499 3.59742593 1.55999378 2.79922969 0 2 C0 1.34 0 0.68 0 0 Z " fill="#88ACF1" transform="translate(201,95)"/>
<path d="M0 0 C7.15076438 2.70139988 14.56382237 6.56382237 20 12 C17 13 17 13 14.73046875 11.890625 C13.89128906 11.34921875 13.05210937 10.8078125 12.1875 10.25 C9.27964768 8.4049592 6.58084984 6.8088087 3.4375 5.375 C1 4 1 4 0.125 1.8125 C0.08375 1.214375 0.0425 0.61625 0 0 Z " fill="#8EB4F3" transform="translate(212,359)"/>
<path d="M0 0 C2.52113092 -0.05447822 5.0410585 -0.09389852 7.5625 -0.125 C8.26697266 -0.14175781 8.97144531 -0.15851563 9.69726562 -0.17578125 C14.51891822 -0.22022044 18.42297438 0.47231996 23 2 C23 2.66 23 3.32 23 4 C15.41 3.34 7.82 2.68 0 2 C0 1.34 0 0.68 0 0 Z " fill="#8BB1F1" transform="translate(342,231)"/>
<path d="M0 0 C6.96660161 1.91833957 13.09868083 4.79648099 19 9 C19.33 9.66 19.66 10.32 20 11 C19.34 10.731875 18.68 10.46375 18 10.1875 C16.39663065 9.55283297 14.7902695 8.92442547 13.16796875 8.33984375 C8.23927219 6.56084677 3.65395497 4.41008382 -1 2 C-0.67 1.34 -0.34 0.68 0 0 Z " fill="#95BDF3" transform="translate(418,47)"/>
<path d="M0 0 C0.66 0 1.32 0 2 0 C0.0827282 7.50931455 -2.24049015 14.75803759 -5 22 C-5.33 22 -5.66 22 -6 22 C-6 18.7 -6 15.4 -6 12 C-5.34 12 -4.68 12 -4 12 C-4 11.34 -4 10.68 -4 10 C-3.34 10 -2.68 10 -2 10 C-2 7.69 -2 5.38 -2 3 C-1.34 3 -0.68 3 0 3 C0 2.01 0 1.02 0 0 Z " fill="#85AEED" transform="translate(165,128)"/>
<path d="M0 0 C4.35330092 6.52995138 5.43664818 14.28588216 5 22 C4.34 21.67 3.68 21.34 3 21 C0.78849704 14.09158937 -0.42575617 7.23785489 0 0 Z " fill="#6B9BEC" transform="translate(460,88)"/>
<path d="M0 0 C2.45041203 3.67561805 3.96046944 7.4857534 5.625 11.5625 C5.94984375 12.34302734 6.2746875 13.12355469 6.609375 13.92773438 C7.06957031 15.04825195 7.06957031 15.04825195 7.5390625 16.19140625 C7.81959473 16.87404541 8.10012695 17.55668457 8.38916016 18.26000977 C9 20 9 20 9 22 C8.01 22 7.02 22 6 22 C2.57142857 13.57142857 2.57142857 13.57142857 3 9 C2.34 9 1.68 9 1 9 C0.67 6.03 0.34 3.06 0 0 Z " fill="#8BB3EF" transform="translate(153,280)"/>
<path d="M0 0 C3.37331354 2.24887569 3.8358179 3.2387963 5 7 C5 8.32 5 9.64 5 11 C5.66 11 6.32 11 7 11 C7.33 12.65 7.66 14.3 8 16 C8.99 16.33 9.98 16.66 11 17 C10.67 18.32 10.34 19.64 10 21 C0 6.9 0 6.9 0 0 Z " fill="#91B7EF" transform="translate(221,259)"/>
<path d="M0 0 C3.23077598 3.80770026 5.8043091 7.52729632 8 12 C7.75 14.4375 7.75 14.4375 7 16 C6.34 15.67 5.68 15.34 5 15 C5 14.34 5 13.68 5 13 C4.34 13 3.68 13 3 13 C3 11.68 3 10.36 3 9 C2.34 9 1.68 9 1 9 C0.67 6.03 0.34 3.06 0 0 Z " fill="#7FA8EF" transform="translate(162,302)"/>
<path d="M0 0 C0.33 0.66 0.66 1.32 1 2 C-1.48608729 7.60297286 -5.20210712 11.34942933 -10 15 C-10.495 15.5775 -10.99 16.155 -11.5 16.75 C-13.76776163 18.63980136 -16.13164367 18.68129374 -19 19 C-18.42121094 18.57332031 -17.84242188 18.14664062 -17.24609375 17.70703125 C-10.47692904 12.56246607 -4.73039254 7.09558881 0 0 Z " fill="#A1C5F3" transform="translate(384,285)"/>
<path d="M0 0 C4.87310005 0.64598366 9.63131839 1.50971736 14.4375 2.5625 C15.67371094 2.83191406 16.90992188 3.10132813 18.18359375 3.37890625 C19.57771484 3.68634766 19.57771484 3.68634766 21 4 C19 6 19 6 15.375 6.125 C14.26125 6.08375 13.1475 6.0425 12 6 C12 5.34 12 4.68 12 4 C11.38511719 3.93941406 10.77023437 3.87882812 10.13671875 3.81640625 C9.32847656 3.73261719 8.52023437 3.64882813 7.6875 3.5625 C6.88699219 3.48128906 6.08648437 3.40007812 5.26171875 3.31640625 C3 3 3 3 0 2 C0 1.34 0 0.68 0 0 Z " fill="#86ACEE" transform="translate(309,402)"/>
<path d="M0 0 C0 3.89319698 -1.2567716 4.94963607 -3.6875 7.9375 C-4.37199219 8.79214844 -5.05648438 9.64679688 -5.76171875 10.52734375 C-8.00098266 13.00108555 -10.34090965 14.99287576 -13 17 C-11.91263205 11.42723924 -9.22576759 9.09752709 -4.97265625 5.7109375 C-2.96589736 3.97042187 -1.51404954 2.17377645 0 0 Z " fill="#94BDF0" transform="translate(453,428)"/>
<path d="M0 0 C2.81288705 0.14019692 5.62516885 0.28687955 8.4375 0.4375 C9.23994141 0.47681641 10.04238281 0.51613281 10.86914062 0.55664062 C16.88671875 0.88671875 16.88671875 0.88671875 18 2 C18.07179964 3.51928038 18.08392007 5.04167482 18.0625 6.5625 C18.05347656 7.38878906 18.04445313 8.21507812 18.03515625 9.06640625 C18.02355469 9.70449219 18.01195312 10.34257812 18 11 C17.34 11 16.68 11 16 11 C16.33 8.69 16.66 6.38 17 4 C11.39 3.01 5.78 2.02 0 1 C0 0.67 0 0.34 0 0 Z " fill="#85ADF0" transform="translate(338,336)"/>
<path d="M0 0 C-0.57492187 0.42023438 -1.14984375 0.84046875 -1.7421875 1.2734375 C-4.69409451 3.53077816 -7.42670188 6.00048433 -10.1953125 8.4765625 C-12 10 -12 10 -14 11 C-14 9.68 -14 8.36 -14 7 C-13.34 7 -12.68 7 -12 7 C-12 6.34 -12 5.68 -12 5 C-11.34 5 -10.68 5 -10 5 C-9.566875 4.0409375 -9.566875 4.0409375 -9.125 3.0625 C-6.99029742 -0.85112139 -4.08058807 -0.08870844 0 0 Z " fill="#86AFEC" transform="translate(331,236)"/>
<path d="M0 0 C0 0.66 0 1.32 0 2 C-1.2065625 2.433125 -1.2065625 2.433125 -2.4375 2.875 C-5.1326468 3.73262568 -5.1326468 3.73262568 -6 6 C-8.21484375 7.10546875 -8.21484375 7.10546875 -10.9375 8.1875 C-12.28134766 8.73470703 -12.28134766 8.73470703 -13.65234375 9.29296875 C-16 10 -16 10 -18 9 C-4.89320388 0 -4.89320388 0 0 0 Z " fill="#8EB4F1" transform="translate(92,48)"/>
<path d="M0 0 C0.33 0.66 0.66 1.32 1 2 C0.54625 2.515625 0.0925 3.03125 -0.375 3.5625 C-2.21012954 6.04304093 -2.21012954 6.04304093 -3 9.5625 C-3.92870658 12.75492885 -4.34199246 14.11724466 -7 16 C-7.66 16 -8.32 16 -9 16 C-8.35026391 12.20084869 -6.58721519 9.51603315 -4.5 6.3125 C-3.8709375 5.33925781 -3.241875 4.36601563 -2.59375 3.36328125 C-1 1 -1 1 0 0 Z " fill="#8DB4F2" transform="translate(63,67)"/>
<path d="M0 0 C6.0509304 1.16554807 12.03466226 2.45343096 18 4 C15 6 15 6 12.94921875 5.828125 C12.20285156 5.63734375 11.45648438 5.4465625 10.6875 5.25 C9.89859375 5.05148437 9.1096875 4.85296875 8.296875 4.6484375 C5.49623291 3.85778004 2.73900494 2.98323254 0 2 C0 1.34 0 0.68 0 0 Z " fill="#86ADED" transform="translate(291,397)"/>
<path d="M0 0 C1.13323609 1.69985413 2.26035875 3.403928 3.3671875 5.12109375 C5.96450877 9.11127902 8.40450518 12.81936997 12 16 C11.67 16.66 11.34 17.32 11 18 C1.81834913 10.43222601 1.81834913 10.43222601 0 6 C-0.1875 2.6875 -0.1875 2.6875 0 0 Z " fill="#A8C3F4" transform="translate(312,281)"/>
<path d="M0 0 C-0.33 1.65 -0.66 3.3 -1 5 C-1.66 5 -2.32 5 -3 5 C-2.67 10.94 -2.34 16.88 -2 23 C-2.66 22.67 -3.32 22.34 -4 22 C-4 15.07 -4 8.14 -4 1 C-2 0 -2 0 0 0 Z " fill="#4781EA" transform="translate(312,257)"/>
<path d="M0 0 C6.17222879 1.24028238 12.06682122 2.89603589 18 5 C18 5.33 18 5.66 18 6 C11.33499135 6.59244521 6.13047025 4.48322845 0 2 C0 1.34 0 0.68 0 0 Z " fill="#86ADEF" transform="translate(273,391)"/>
<path d="M0 0 C6.49957243 -0.30950345 12.06581955 0.11238541 18 3 C18.33 3.66 18.66 4.32 19 5 C12.42465139 4.37968409 6.33307408 2.85102717 0 1 C0 0.67 0 0.34 0 0 Z " fill="#8CB1F1" transform="translate(319,331)"/>
<path d="M0 0 C5.1182341 2.13259754 10.0577081 4.48550061 15 7 C15 7.66 15 8.32 15 9 C11.49133684 7.9730742 8.43529202 6.74867521 5.3125 4.875 C2.19926282 2.75370089 2.19926282 2.75370089 -1 3 C-0.67 2.01 -0.34 1.02 0 0 Z " fill="#95BAF2" transform="translate(186,87)"/>
<path d="M0 0 C-1.3921875 0.433125 -1.3921875 0.433125 -2.8125 0.875 C-6.09791667 1.8875 -6.09791667 1.8875 -9 4 C-11.26171875 4.1953125 -11.26171875 4.1953125 -13.6875 4.125 C-14.89986328 4.09792969 -14.89986328 4.09792969 -16.13671875 4.0703125 C-17.05904297 4.03550781 -17.05904297 4.03550781 -18 4 C-12.63910068 0.42606712 -6.40465838 -2.21699713 0 0 Z " fill="#86AFF1" transform="translate(110,44)"/>
<path d="M0 0 C2.64 0 5.28 0 8 0 C8.33 0.99 8.66 1.98 9 3 C11.64 3.33 14.28 3.66 17 4 C17 4.66 17 5.32 17 6 C11.07136283 4.83348574 5.61201606 3.24480642 0 1 C0 0.67 0 0.34 0 0 Z " fill="#8FB5F1" transform="translate(286,320)"/>
<path d="M0 0 C3.43859819 0.27912628 4.6928044 0.65239956 7.01953125 3.28515625 C7.61121094 4.20167969 8.20289063 5.11820313 8.8125 6.0625 C9.41707031 6.98160156 10.02164062 7.90070313 10.64453125 8.84765625 C11.09183594 9.55792969 11.53914063 10.26820313 12 11 C11.67 11.66 11.34 12.32 11 13 C9.16365966 11.02354928 7.33083938 9.044035 5.5 7.0625 C4.71302734 6.21655273 4.71302734 6.21655273 3.91015625 5.35351562 C0 1.11328125 0 1.11328125 0 0 Z " fill="#9ABCF0" transform="translate(373,239)"/>
<path d="M0 0 C3.68266103 0.59950296 7.34543185 1.24758891 11 2 C11 2.66 11 3.32 11 4 C11.66 4.33 12.32 4.66 13 5 C13 5.66 13 6.32 13 7 C8.1725201 5.58707905 4.2837641 3.57025846 0 1 C0 0.67 0 0.34 0 0 Z " fill="#8AB1F1" transform="translate(233,112)"/>
<path d="M0 0 C0.99 0.33 1.98 0.66 3 1 C3.69839276 2.6628399 4.39092569 4.3286538 5.0390625 6.01171875 C6.72300475 9.49597324 9.36894059 12.19864548 12 15 C11.67 15.66 11.34 16.32 11 17 C9.53077754 15.30102259 8.07505546 13.59036529 6.625 11.875 C5.81289063 10.92367188 5.00078125 9.97234375 4.1640625 8.9921875 C2.00783673 6.01083563 0.95319942 3.52998028 0 0 Z " fill="#A2C1F5" transform="translate(56,424)"/>
<path d="M0 0 C0.66 0.33 1.32 0.66 2 1 C0.68938409 5.23429756 -0.94356259 9.07407404 -3 13 C-3.33 13 -3.66 13 -4 13 C-3.85892253 11.54119891 -3.71197585 10.08296449 -3.5625 8.625 C-3.48128906 7.81289063 -3.40007812 7.00078125 -3.31640625 6.1640625 C-3 4 -3 4 -2 2 C-1.34 2 -0.68 2 0 2 C0 1.34 0 0.68 0 0 Z " fill="#75A1EE" transform="translate(458,415)"/>
<path d="M0 0 C0.66 0.33 1.32 0.66 2 1 C1.34 2.65 0.68 4.3 0 6 C-0.66 6 -1.32 6 -2 6 C-2.99 9.465 -2.99 9.465 -4 13 C-4.33 13 -4.66 13 -5 13 C-5.21156222 8.55719328 -4.80795432 5.0916861 -3 1 C-2.01 0.67 -1.02 0.34 0 0 Z " fill="#71ABF0" transform="translate(172,114)"/>
<path d="M0 0 C6.0018137 -0.21824777 11.19233704 0.4943096 17 2 C13.53901145 4.3073257 12.06874411 4.03861971 8.07421875 3.42578125 C5.29005034 2.85426645 2.65862602 1.99698476 0 1 C0 0.67 0 0.34 0 0 Z " fill="#7BA8ED" transform="translate(92,456)"/>
<path d="M0 0 C0.33 0 0.66 0 1 0 C1.02691685 2.45840605 1.04679802 4.91651882 1.0625 7.375 C1.07087891 8.07367188 1.07925781 8.77234375 1.08789062 9.4921875 C1.11328125 14.7734375 1.11328125 14.7734375 0 17 C-0.66 17 -1.32 17 -2 17 C-1.03644647 5.47835991 -1.03644647 5.47835991 0 0 Z " fill="#82AEF1" transform="translate(349,368)"/>
<path d="M0 0 C1.75043149 0.79071216 3.50032778 1.58260918 5.25 2.375 C6.71179688 3.03628906 6.71179688 3.03628906 8.203125 3.7109375 C10.49311839 4.76638138 12.75366601 5.85543935 15 7 C9.36999727 7.34469404 5.85113803 6.7166373 1 4 C0.3046875 1.890625 0.3046875 1.890625 0 0 Z " fill="#83ABEE" transform="translate(325,299)"/>
<path d="M0 0 C1.58409994 0.11487748 3.16728963 0.24234508 4.75 0.375 C6.07257813 0.47941406 6.07257813 0.47941406 7.421875 0.5859375 C11.16923314 1.18778593 13.32588569 2.32588569 16 5 C10.34979382 4.39891424 5.33835539 2.92471317 0 1 C0 0.67 0 0.34 0 0 Z " fill="#8BB4EF" transform="translate(303,326)"/>
<path d="M0 0 C0.66 0 1.32 0 2 0 C2 1.65 2 3.3 2 5 C2.66 5 3.32 5 4 5 C4.33 8.3 4.66 11.6 5 15 C2.68994131 12.68994131 2.27825897 11.16916343 1.375 8.0625 C1.11460938 7.18722656 0.85421875 6.31195313 0.5859375 5.41015625 C0 3 0 3 0 0 Z " fill="#85AEEE" transform="translate(48,403)"/>
<path d="M0 0 C0.33 0 0.66 0 1 0 C1.09765625 6.15234375 1.09765625 6.15234375 1 8 C0.67 8.33 0.34 8.66 0 9 C-0.36760731 11.32817964 -0.70241581 13.6618385 -1 16 C-1.66 15.67 -2.32 15.34 -3 15 C-2.44854729 9.76119922 -1.57077907 5.02649303 0 0 Z " fill="#8AAFEF" transform="translate(223,181)"/>
<path d="M0 0 C0.66 0.33 1.32 0.66 2 1 C1.62403791 3.78211944 1.32681541 5.5879284 -0.4375 7.8125 C-2 9 -2 9 -4 9 C-2.94124926 5.59687262 -1.99097846 2.98646769 0 0 Z " fill="#78A4F0" transform="translate(242,133)"/>
<path d="M0 0 C3.37462715 0.54723683 5.08235 1.0549 8 3 C8 3.99 8 4.98 8 6 C2.25 4.125 2.25 4.125 0 3 C0 2.01 0 1.02 0 0 Z " fill="#79A3F0" transform="translate(213,100)"/>
<path d="M0 0 C0.33 0 0.66 0 1 0 C1.36539443 4.28577219 0.48423598 6.34492062 -2 9.8125 C-2.556875 10.60269531 -3.11375 11.39289063 -3.6875 12.20703125 C-4.120625 12.79871094 -4.55375 13.39039063 -5 14 C-5.33 13.34 -5.66 12.68 -6 12 C-4.78515625 9.1796875 -4.78515625 9.1796875 -3.0625 5.875 C-2.49660156 4.77929688 -1.93070313 3.68359375 -1.34765625 2.5546875 C-0.90292969 1.71164063 -0.45820313 0.86859375 0 0 Z " fill="#4681EF" transform="translate(249,122)"/>
<path d="M0 0 C0.66 0 1.32 0 2 0 C1 3 1 3 -1 4 C-1.268125 4.66 -1.53625 5.32 -1.8125 6 C-3 8 -3 8 -5.625 8.75 C-6.40875 8.8325 -7.1925 8.915 -8 9 C-7.04270084 7.87411986 -6.08412105 6.7493285 -5.125 5.625 C-4.59132813 4.99851562 -4.05765625 4.37203125 -3.5078125 3.7265625 C-2.38567993 2.44163349 -1.20628025 1.20628025 0 0 Z " fill="#8EB6EE" transform="translate(72,58)"/>
<path d="M0 0 C6.75 2.75 6.75 2.75 9 5 C8.67 5.99 8.34 6.98 8 8 C7.1028125 7.2884375 7.1028125 7.2884375 6.1875 6.5625 C3.99617076 4.83534256 3.99617076 4.83534256 1 4 C0.3125 1.9375 0.3125 1.9375 0 0 Z " fill="#70ABEA" transform="translate(212,359)"/>
<path d="M0 0 C0.33 0 0.66 0 1 0 C1.2358396 5.77807024 0.86783046 10.51324804 -1 16 C-1.33 16 -1.66 16 -2 16 C-2.20674944 10.21101581 -1.59162079 5.57067277 0 0 Z " fill="#88B0F0" transform="translate(49,94)"/>
<path d="M0 0 C3.61941735 1.50239966 6.7321794 2.82145293 10 5 C10 5.66 10 6.32 10 7 C8.51515588 6.60404157 7.0371169 6.18249294 5.5625 5.75 C4.73878906 5.51796875 3.91507812 5.2859375 3.06640625 5.046875 C1 4 1 4 0.21484375 1.890625 C0.14394531 1.26671875 0.07304688 0.6428125 0 0 Z " fill="#7AA4F1" transform="translate(82,449)"/>
<path d="M0 0 C0.99 0.33 1.98 0.66 3 1 C3 1.66 3 2.32 3 3 C3.66 3 4.32 3 5 3 C6.625 4.375 6.625 4.375 8 6 C8 6.66 8 7.32 8 8 C5.125 7.375 5.125 7.375 2 6 C0.625 2.875 0.625 2.875 0 0 Z " fill="#719AE8" transform="translate(66,436)"/>
<path d="M0 0 C2.40034102 3.60051153 4.32187705 6.96144535 3.625 11.375 C3.41875 11.91125 3.2125 12.4475 3 13 C3 12.01 3 11.02 3 10 C2.34 10 1.68 10 1 10 C-0.60725635 6.78548731 -0.05748185 3.56387464 0 0 Z " fill="#84ADF0" transform="translate(460,88)"/>
<path d="M0 0 C0.66 0.33 1.32 0.66 2 1 C1.01 3.64 0.02 6.28 -1 9 C-1.99 8.67 -2.98 8.34 -4 8 C-2.68 5.36 -1.36 2.72 0 0 Z " fill="#789FEA" transform="translate(184,87)"/>
<path d="M0 0 C0.33 0 0.66 0 1 0 C0.67 3.96 0.34 7.92 0 12 C-0.99 11.34 -1.98 10.68 -3 10 C-2.01 6.7 -1.02 3.4 0 0 Z " fill="#75A2F0" transform="translate(53,83)"/>
<path d="M0 0 C0.33 0.99 0.66 1.98 1 3 C-1 6 -1 6 -3.625 6.6875 C-4.800625 6.8421875 -4.800625 6.8421875 -6 7 C-5.34 5.35 -4.68 3.7 -4 2 C-2.68 2 -1.36 2 0 2 C0 1.34 0 0.68 0 0 Z " fill="#5A8EEA" transform="translate(441,439)"/>
<path d="M0 0 C0.33 0 0.66 0 1 0 C1 2.64 1 5.28 1 8 C-0.32 8 -1.64 8 -3 8 C-1.125 2.25 -1.125 2.25 0 0 Z " fill="#84ABF0" transform="translate(237,143)"/>
<path d="M0 0 C6.52307692 0.61538462 6.52307692 0.61538462 8.9375 2.5625 C9.288125 3.036875 9.63875 3.51125 10 4 C9.01 4.495 9.01 4.495 8 5 C6.0546875 4.22265625 6.0546875 4.22265625 3.875 3.0625 C3.15054687 2.68222656 2.42609375 2.30195313 1.6796875 1.91015625 C1.12539063 1.60980469 0.57109375 1.30945313 0 1 C0 0.67 0 0.34 0 0 Z " fill="#94B9F2" transform="translate(276,315)"/>
<path d="M0 0 C2 2 2 2 2 5 C2.99 5.33 3.98 5.66 5 6 C4.67 7.32 4.34 8.64 4 10 C0 4.5 0 4.5 0 0 Z " fill="#82ABEB" transform="translate(227,270)"/>
<path d="M0 0 C7.75 0.75 7.75 0.75 10 3 C3.375 3.125 3.375 3.125 0 2 C0 1.34 0 0.68 0 0 Z " fill="#85ACF1" transform="translate(407,44)"/>
<path d="M0 0 C0.33 0.66 0.66 1.32 1 2 C3.02463255 2.65213292 3.02463255 2.65213292 5 3 C4.67 4.32 4.34 5.64 4 7 C3.34 6.67 2.68 6.34 2 6 C2 5.34 2 4.68 2 4 C1.34 4 0.68 4 0 4 C0 2.68 0 1.36 0 0 Z " fill="#5C91ED" transform="translate(165,311)"/>
<path d="M0 0 C0.66 0 1.32 0 2 0 C2.25 2.25 2.25 2.25 2 5 C0 7.3125 0 7.3125 -2 9 C-1.34 6.03 -0.68 3.06 0 0 Z " fill="#75A1EC" transform="translate(386,280)"/>
<path d="M0 0 C1.875 0.1875 1.875 0.1875 4 1 C5.25 3.5625 5.25 3.5625 6 6 C5.01 6 4.02 6 3 6 C0 2.66666667 0 2.66666667 0 0 Z " fill="#8BB0EF" transform="translate(232,280)"/>
<path d="M0 0 C0.33 0.99 0.66 1.98 1 3 C-0.65 4.65 -2.3 6.3 -4 8 C-3.50168276 4.31245243 -2.89932357 2.39509338 0 0 Z " fill="#5489EB" transform="translate(453,425)"/>
<path d="M0 0 C2.02054804 1.64169528 4.02043058 3.30911778 6 5 C6 5.33 6 5.66 6 6 C4.35 6 2.7 6 1 6 C0.67 4.02 0.34 2.04 0 0 Z " fill="#759DEC" transform="translate(192,342)"/>
<path d="M0 0 C-0.33 1.65 -0.66 3.3 -1 5 C-1.99 5 -2.98 5 -4 5 C-4 3.68 -4 2.36 -4 1 C-2 0 -2 0 0 0 Z " fill="#699BEB" transform="translate(312,257)"/>
<path d="M0 0 C-1.32 0.33 -2.64 0.66 -4 1 C-4 1.66 -4 2.32 -4 3 C-5.65 3.33 -7.3 3.66 -9 4 C-9 3.34 -9 2.68 -9 2 C-5.5647952 -0.29013653 -4.014669 -0.17842973 0 0 Z " fill="#6492EB" transform="translate(346,230)"/>
<path d="M0 0 C3.465 1.485 3.465 1.485 7 3 C7 3.66 7 4.32 7 5 C4.69 4.34 2.38 3.68 0 3 C0 2.01 0 1.02 0 0 Z " fill="#A5C4F7" transform="translate(186,87)"/>
<path d="M0 0 C1.32 0.33 2.64 0.66 4 1 C4 2.65 4 4.3 4 6 C3.67 5.34 3.34 4.68 3 4 C2.01 4 1.02 4 0 4 C0 2.68 0 1.36 0 0 Z " fill="#699BE9" transform="translate(445,66)"/>
<path d="M0 0 C1.67542976 0.28604898 3.34385343 0.61781233 5 1 C5.33 2.32 5.66 3.64 6 5 C3.08482708 3.92598892 1.22189824 3.22189824 -1 1 C-0.67 0.67 -0.34 0.34 0 0 Z " fill="#739EEB" transform="translate(418,47)"/>
</svg>
